<svg width="166" height="37" viewBox="0 0 166 37" fill="none" xmlns="http://www.w3.org/2000/svg">
<path d="M9.08899 0.324307C7.712 0.526489 6.57598 0.715192 6.54156 0.755628C6.42681 0.890415 4.65967 9.17984 4.72852 9.24724C4.77442 9.30115 6.27763 9.86726 8.07919 10.5142L11.3495 11.6869L14.6199 10.5142C16.4214 9.86726 17.9247 9.30115 17.9706 9.24724C18.0624 9.15289 16.3411 0.984766 16.2034 0.863458C16.1575 0.823021 15.1707 0.62084 14.0232 0.418659C12.8642 0.216477 11.843 0.0277758 11.7512 0.000818253C11.6594 -0.012661 10.4545 0.135606 9.08899 0.324307Z" fill="#40C910"/>
<path d="M0.632115 15.3532C0.069845 17.1324 -0.0104793 17.6985 0.000995627 20.1516C0.000995627 22.9013 0.173119 23.8448 1.02226 25.9071C2.61727 29.762 5.47452 32.3229 9.16944 33.2395C9.54812 33.3338 10.535 33.4147 11.3497 33.4012C13.048 33.3878 14.4823 33.0238 15.9052 32.269L16.697 31.8377L15.8823 30.8672L15.0675 29.9102L14.1266 30.2742C12.8758 30.7729 11.5447 30.9616 10.4087 30.7998C9.02027 30.6246 8.46947 30.4224 7.18429 29.6946C4.71718 28.2793 2.98447 25.7049 2.3304 22.47C1.98615 20.8256 2.06648 18.5477 2.514 16.9437C2.67465 16.3237 2.80087 15.798 2.77792 15.771C2.6517 15.6497 1.04521 14.6253 0.964888 14.6253C0.907513 14.6253 0.758339 14.9488 0.632115 15.3532Z" fill="white"/>
<path d="M20.6446 15.2453C20.1397 15.5823 19.7037 15.8788 19.6807 15.9058C19.6578 15.9327 19.7266 16.2158 19.8299 16.5258C20.3463 18.0354 20.5069 20.4751 20.1971 22.1734C19.784 24.4513 19.0381 26.0418 17.6038 27.7266L16.6055 28.8858L18.4529 31.0559L20.2889 33.2125L20.0365 33.536L19.784 33.846L21.1266 35.423L22.4806 37H25.1198H27.7476L25.0739 33.8864L22.4003 30.7863L22.1249 31.0828L21.838 31.3928L20.8053 30.1798L19.7611 28.9532L20.3463 28.0501C21.0922 26.8909 21.8839 24.9904 22.2167 23.5213C22.4462 22.5373 22.4806 22.0521 22.4806 20.1516C22.4806 17.8332 22.32 16.6741 21.7692 15.2049L21.5626 14.6388L20.6446 15.2453Z" fill="white"/>
<path d="M3.62697 10.4501L0.288086 12.3434L11.2834 19.6464L22.5665 12.3434L19.2852 10.4501L11.2834 13.493L3.62697 10.4501Z" fill="#40C910"/>
<path d="M28.6533 11.1607H31.0046L34.6294 24.1143H34.6686L38.2934 11.1607H40.6447L35.7854 27.2951H33.5126L28.6533 11.1607Z" fill="white"/>
<path d="M41.7092 13.3504V12.0135L42.5125 11.0916H43.7077L44.5111 12.0135V13.3504L43.7077 14.2723H42.5125L41.7092 13.3504ZM42.0031 15.8166H44.2172V27.2951H42.0031V15.8166Z" fill="white"/>
<path d="M47.1503 15.8166H49.2076V17.7758L50.8339 15.8166H53.5378V18.0524H51.3237L49.3644 20.4034V27.2951H47.1503V15.8166Z" fill="white"/>
<path d="M55.1125 24.9672V15.8166H57.3266V24.1604L58.0908 25.0594H59.7954L61.8724 22.6161V15.8166H64.0865V27.2951H62.0291V25.1746L60.2069 27.2951H57.0915L55.1125 24.9672Z" fill="white"/>
<path d="M66.3399 25.1516V23.7456H68.5148V24.4831L69.0634 25.1516H72.3944L72.943 24.4831V23.2385L72.3748 22.57H68.1621L66.4183 20.4956V17.9141L68.2013 15.8166H73.1193L74.922 17.9602V19.3662H72.7471V18.6286L72.1984 17.9602H69.1418L68.5932 18.6286V19.7811L69.1614 20.4495H73.3545L75.1179 22.547V25.1977L73.3349 27.2951H68.1425L66.3399 25.1516Z" fill="white"/>
<path d="M77.5734 11.1607H79.8463V27.2951H77.5734V11.1607Z" fill="white"/>
<path d="M82.778 15.8166H84.8353V17.9141L86.6184 15.8166H89.7142L91.7715 18.2368V27.2951H89.5574V18.9513L88.7933 18.0524H87.0298L84.9921 20.4726V27.2951H82.778V15.8166Z" fill="white"/>
<path d="M93.9265 25.1516V23.7456H96.1014V24.4831L96.6501 25.1516H99.981L100.53 24.4831V23.2385L99.9614 22.57H95.7487L94.0049 20.4956V17.9141L95.7879 15.8166H100.706L102.509 17.9602V19.3662H100.334V18.6286L99.7851 17.9602H96.7284L96.1798 18.6286V19.7811L96.748 20.4495H100.941L102.705 22.547V25.1977L100.922 27.2951H95.7292L93.9265 25.1516Z" fill="white"/>
<path d="M104.964 15.8166H107.021V17.6145L108.569 15.8166H112.312L114.271 18.1216V24.9902L112.312 27.2951H108.55L107.178 25.9352V32.1816H104.964V15.8166ZM111.273 25.0594L112.057 24.1604V18.9513L111.273 18.0524H108.922L107.178 20.1038V23.3076L108.824 25.0594H111.273Z" fill="white"/>
<path d="M116.617 25.0133V18.1216L118.557 15.8166H123.867L125.846 18.1216V22.4087H118.831V24.2526L119.576 25.1285H122.926L123.632 24.2757V23.5842H125.826V25.0594L123.925 27.2951H118.537L116.617 25.0133ZM123.632 20.4956V18.9052L122.867 17.9833H119.595L118.831 18.9052V20.4956H123.632Z" fill="white"/>
<path d="M128.102 25.0133V18.0985L130.023 15.8166H135.176L137.115 18.1216V20.0116H134.901V18.9513L134.118 18.0524H131.1L130.316 18.9513V24.1604L131.1 25.0594H134.118L134.901 24.1604V23.1002H137.115V24.9902L135.176 27.2951H130.023L128.102 25.0133Z" fill="white"/>
<path d="M140.149 25.0133V18.0294H138.385V15.8166H140.188V12.0827H142.363V15.8166H145.361V18.0294H142.363V24.1835L143.127 25.0824H145.361V27.2951H142.088L140.149 25.0133Z" fill="white"/>
<path d="M146.94 24.9902V18.1216L148.88 15.8166H154.288L156.247 18.1216V24.9902L154.288 27.2951H148.88L146.94 24.9902ZM153.249 25.1055L154.033 24.1835V18.9283L153.249 18.0063H149.938L149.154 18.9283V24.1835L149.938 25.1055H153.249Z" fill="white"/>
<path d="M158.793 15.8166H160.851V17.7758L162.477 15.8166H165.181V18.0524H162.967L161.007 20.4034V27.2951H158.793V15.8166Z" fill="white"/>
</svg>
